<svg width="100" height="26" viewBox="0 0 100 26" fill="none" xmlns="http://www.w3.org/2000/svg">
  <path d="M9.026 25.54C6.626 25.54 4.676 25 3.176 23.92C1.676 22.84 0.764 21.322 0.44 19.366L4.868 18.682C5.096 19.642 5.6 20.398 6.38 20.95C7.16 21.502 8.144 21.778 9.332 21.778C10.376 21.778 11.18 21.574 11.744 21.166C12.32 20.746 12.608 20.176 12.608 19.456C12.608 19.012 12.5 18.658 12.284 18.394C12.08 18.118 11.624 17.854 10.916 17.602C10.208 17.35 9.122 17.032 7.658 16.648C6.026 16.216 4.73 15.754 3.77 15.262C2.81 14.758 2.12 14.164 1.7 13.48C1.28 12.796 1.07 11.968 1.07 10.996C1.07 9.784 1.388 8.728 2.024 7.828C2.66 6.928 3.548 6.238 4.688 5.758C5.828 5.266 7.172 5.02 8.72 5.02C10.232 5.02 11.57 5.254 12.734 5.722C13.91 6.19 14.858 6.856 15.578 7.72C16.298 8.584 16.742 9.598 16.91 10.762L12.482 11.554C12.374 10.726 11.996 10.072 11.348 9.592C10.712 9.112 9.86 8.842 8.792 8.782C7.772 8.722 6.95 8.878 6.326 9.25C5.702 9.61 5.39 10.12 5.39 10.78C5.39 11.152 5.516 11.47 5.768 11.734C6.02 11.998 6.524 12.262 7.28 12.526C8.048 12.79 9.188 13.114 10.7 13.498C12.248 13.894 13.484 14.35 14.408 14.866C15.344 15.37 16.016 15.976 16.424 16.684C16.844 17.392 17.054 18.25 17.054 19.258C17.054 21.214 16.34 22.75 14.912 23.866C13.496 24.982 11.534 25.54 9.026 25.54ZM44.3426 25V13.192C44.3426 11.86 44.0126 10.822 43.3526 10.078C42.6926 9.322 41.7986 8.944 40.6706 8.944C39.9746 8.944 39.3506 9.106 38.7986 9.43C38.2466 9.742 37.8086 10.21 37.4846 10.834C37.1606 11.446 36.9986 12.178 36.9986 13.03L35.0726 11.896C35.0606 10.552 35.3606 9.37 35.9726 8.35C36.5966 7.318 37.4366 6.514 38.4926 5.938C39.5486 5.362 40.7246 5.074 42.0206 5.074C44.1686 5.074 45.8126 5.722 46.9526 7.018C48.1046 8.302 48.6806 9.994 48.6806 12.094V25H44.3426ZM20.9606 25V5.56H24.7946V11.59H25.3346V25H20.9606ZM32.6786 25V13.246C32.6786 11.89 32.3486 10.834 31.6886 10.078C31.0286 9.322 30.1286 8.944 28.9886 8.944C27.8846 8.944 26.9966 9.322 26.3246 10.078C25.6646 10.834 25.3346 11.818 25.3346 13.03L23.3906 11.734C23.3906 10.474 23.7026 9.34 24.3266 8.332C24.9506 7.324 25.7906 6.532 26.8466 5.956C27.9146 5.368 29.1086 5.074 30.4286 5.074C31.8806 5.074 33.0926 5.386 34.0646 6.01C35.0486 6.622 35.7806 7.462 36.2606 8.53C36.7526 9.586 36.9986 10.78 36.9986 12.112V25H32.6786ZM58.8115 25.54C57.4075 25.54 56.2195 25.276 55.2475 24.748C54.2755 24.208 53.5375 23.494 53.0335 22.606C52.5415 21.718 52.2955 20.74 52.2955 19.672C52.2955 18.736 52.4515 17.896 52.7635 17.152C53.0755 16.396 53.5555 15.748 54.2035 15.208C54.8515 14.656 55.6915 14.206 56.7235 13.858C57.5035 13.606 58.4155 13.378 59.4595 13.174C60.5155 12.97 61.6555 12.784 62.8795 12.616C64.1155 12.436 65.4055 12.244 66.7495 12.04L65.2015 12.922C65.2135 11.578 64.9135 10.588 64.3015 9.952C63.6895 9.316 62.6575 8.998 61.2055 8.998C60.3295 8.998 59.4835 9.202 58.6675 9.61C57.8515 10.018 57.2815 10.72 56.9575 11.716L52.9975 10.474C53.4775 8.83 54.3895 7.51 55.7335 6.514C57.0895 5.518 58.9135 5.02 61.2055 5.02C62.9335 5.02 64.4515 5.302 65.7595 5.866C67.0795 6.43 68.0575 7.354 68.6935 8.638C69.0415 9.322 69.2515 10.024 69.3235 10.744C69.3955 11.452 69.4315 12.226 69.4315 13.066V25H65.6335V20.788L66.2635 21.472C65.3875 22.876 64.3615 23.908 63.1855 24.568C62.0215 25.216 60.5635 25.54 58.8115 25.54ZM59.6755 22.084C60.6595 22.084 61.4995 21.91 62.1955 21.562C62.8915 21.214 63.4435 20.788 63.8515 20.284C64.2715 19.78 64.5535 19.306 64.6975 18.862C64.9255 18.31 65.0515 17.68 65.0755 16.972C65.1115 16.252 65.1295 15.67 65.1295 15.226L66.4615 15.622C65.1535 15.826 64.0315 16.006 63.0955 16.162C62.1595 16.318 61.3555 16.468 60.6835 16.612C60.0115 16.744 59.4175 16.894 58.9015 17.062C58.3975 17.242 57.9715 17.452 57.6235 17.692C57.2755 17.932 57.0055 18.208 56.8135 18.52C56.6335 18.832 56.5435 19.198 56.5435 19.618C56.5435 20.098 56.6635 20.524 56.9035 20.896C57.1435 21.256 57.4915 21.544 57.9475 21.76C58.4155 21.976 58.9915 22.084 59.6755 22.084ZM74.1177 25V5.56H77.9517V10.294L77.4837 9.682C77.7237 9.034 78.0417 8.446 78.4377 7.918C78.8457 7.378 79.3317 6.934 79.8957 6.586C80.3757 6.262 80.9037 6.01 81.4797 5.83C82.0677 5.638 82.6677 5.524 83.2797 5.488C83.8917 5.44 84.4857 5.464 85.0617 5.56V9.61C84.4857 9.442 83.8197 9.388 83.0637 9.448C82.3197 9.508 81.6477 9.718 81.0477 10.078C80.4477 10.402 79.9557 10.816 79.5717 11.32C79.1997 11.824 78.9237 12.4 78.7437 13.048C78.5637 13.684 78.4737 14.374 78.4737 15.118V25H74.1177ZM99.8906 25C98.6066 25.24 97.3466 25.342 96.1106 25.306C94.8866 25.282 93.7886 25.06 92.8166 24.64C91.8446 24.208 91.1066 23.53 90.6026 22.606C90.1586 21.766 89.9246 20.908 89.9006 20.032C89.8766 19.156 89.8646 18.166 89.8646 17.062V0.159998H94.1846V16.81C94.1846 17.59 94.1906 18.274 94.2026 18.862C94.2266 19.45 94.3526 19.93 94.5806 20.302C95.0126 21.022 95.7026 21.424 96.6506 21.508C97.5986 21.592 98.6786 21.544 99.8906 21.364V25ZM86.3366 8.962V5.56H99.8906V8.962H86.3366Z" fill="black"/>
</svg>
