<?xml version="1.0" encoding="utf-8"?>
<!-- Generator: Adobe Illustrator 26.0.2, SVG Export Plug-In . SVG Version: 6.00 Build 0)  -->
<svg version="1.1" id="Layer_1" xmlns="http://www.w3.org/2000/svg" xmlns:xlink="http://www.w3.org/1999/xlink" x="0px" y="0px"
	 viewBox="0 0 92.9 26" style="enable-background:new 0 0 92.9 26;" xml:space="preserve">
<g>
	<path d="M8.5,26c-1.8,0-3.3-0.4-4.6-1.3c-1.3-0.9-2.3-2.1-3-3.6c-0.7-1.5-1.1-3.2-1.1-5.1c0-1.9,0.4-3.7,1.1-5.2
		C1.6,9.2,2.7,8,4,7.2c1.3-0.9,2.9-1.3,4.7-1.3c1.8,0,3.3,0.4,4.6,1.3c1.2,0.9,2.2,2.1,2.8,3.6c0.6,1.5,1,3.2,1,5.2
		c0,1.9-0.3,3.6-1,5.1c-0.6,1.5-1.6,2.7-2.8,3.6C12,25.6,10.4,26,8.5,26z M9.2,22.2c1.1,0,2.1-0.3,2.8-0.8c0.7-0.5,1.2-1.3,1.5-2.2
		c0.3-0.9,0.5-2,0.5-3.3c0-1.2-0.2-2.3-0.5-3.3c-0.3-0.9-0.8-1.7-1.5-2.2c-0.7-0.5-1.6-0.8-2.7-0.8c-1.1,0-2.1,0.3-2.8,0.8
		c-0.7,0.6-1.3,1.3-1.6,2.3c-0.4,0.9-0.5,2-0.5,3.2c0,1.2,0.2,2.2,0.5,3.2c0.3,0.9,0.9,1.7,1.6,2.3C7.2,21.9,8.1,22.2,9.2,22.2z
		 M14,25.5V12.1h-0.5V0h4.3v25.5H14z"/>
	<path d="M31.4,26c-1.9,0-3.6-0.4-5.1-1.3c-1.5-0.8-2.6-2-3.4-3.5c-0.8-1.5-1.2-3.2-1.2-5.1c0-2.1,0.4-3.9,1.2-5.4
		c0.8-1.5,1.9-2.7,3.3-3.6s3.1-1.3,5-1.3c2,0,3.7,0.5,5,1.4c1.4,0.9,2.4,2.2,3.1,3.9c0.7,1.7,0.9,3.7,0.8,6h-4.2v-1.6
		c0-2.1-0.4-3.6-1.1-4.5c-0.7-1-1.9-1.4-3.4-1.4c-1.7,0-3,0.5-3.9,1.6c-0.8,1.1-1.3,2.7-1.3,4.7c0,1.9,0.4,3.4,1.3,4.5
		c0.8,1.1,2.1,1.6,3.7,1.6c1,0,2-0.2,2.7-0.7c0.8-0.5,1.3-1.1,1.8-2l4.2,1.3c-0.7,1.7-1.9,3.1-3.4,4C34.9,25.5,33.2,26,31.4,26z
		 M24.8,17.1v-3.2h13.1v3.2H24.8z"/>
	<path d="M43.4,25.5V6.4h3.8v5.9h0.5v13.2H43.4z M54.9,25.5V13.9c0-1.3-0.3-2.4-1-3.1c-0.6-0.7-1.5-1.1-2.7-1.1
		c-1.1,0-2,0.4-2.6,1.1c-0.7,0.7-1,1.7-1,2.9l-1.9-1.3c0-1.2,0.3-2.4,0.9-3.3c0.6-1,1.4-1.8,2.5-2.3c1-0.6,2.2-0.9,3.5-0.9
		c1.4,0,2.6,0.3,3.6,0.9c1,0.6,1.7,1.4,2.2,2.5c0.5,1,0.7,2.2,0.7,3.5v12.7H54.9z M66.4,25.5V13.9c0-1.3-0.3-2.3-1-3.1
		c-0.6-0.7-1.5-1.1-2.6-1.1c-0.7,0-1.3,0.2-1.8,0.5c-0.5,0.3-1,0.8-1.3,1.4c-0.3,0.6-0.5,1.3-0.5,2.2l-1.9-1.1
		c0-1.3,0.3-2.5,0.9-3.5c0.6-1,1.4-1.8,2.5-2.4c1-0.6,2.2-0.8,3.5-0.8c2.1,0,3.7,0.6,4.9,1.9c1.1,1.3,1.7,2.9,1.7,5v12.7H66.4z"/>
	<path d="M83.4,26c-1.9,0-3.6-0.4-5-1.3c-1.4-0.9-2.5-2-3.3-3.6c-0.8-1.5-1.2-3.3-1.2-5.2c0-2,0.4-3.8,1.2-5.3
		C75.9,9.1,77,8,78.4,7.1c1.4-0.8,3.1-1.3,5-1.3c1.9,0,3.6,0.4,5,1.3c1.4,0.9,2.5,2,3.3,3.6c0.8,1.5,1.2,3.3,1.2,5.2
		c0,2-0.4,3.7-1.2,5.2c-0.8,1.5-1.9,2.7-3.3,3.6C87,25.6,85.3,26,83.4,26z M83.4,22c1.7,0,3-0.6,3.8-1.7c0.8-1.1,1.2-2.6,1.2-4.4
		c0-1.9-0.4-3.3-1.3-4.4c-0.8-1.1-2.1-1.7-3.8-1.7c-1.1,0-2.1,0.3-2.8,0.8c-0.7,0.5-1.3,1.2-1.6,2.1c-0.4,0.9-0.5,2-0.5,3.2
		c0,1.9,0.4,3.3,1.3,4.4S81.8,22,83.4,22z"/>
</g>
</svg>
